<svg id="Layer_3" data-name="Layer 3" xmlns="http://www.w3.org/2000/svg" viewBox="0 0 77.25 69.43"><defs><style>.cls-1{fill:#484848;}.cls-2{fill:#c60c30;}</style></defs><title>Vector Smart Object</title><path class="cls-1" d="M48.53,69.88a29,29,0,1,1,29-29,29,29,0,0,1-29,29Zm0-51.67A22.71,22.71,0,1,0,71.24,40.91,22.73,22.73,0,0,0,48.53,18.2Z" transform="translate(-0.25 -0.45)"/><path class="cls-2" d="M48.53,60a19.05,19.05,0,1,1,19-19,19.07,19.07,0,0,1-19,19Zm0-35A15.92,15.92,0,1,0,64.45,40.91,15.94,15.94,0,0,0,48.53,25Z" transform="translate(-0.25 -0.45)"/><path class="cls-1" d="M36.27,20.81H3.38a3.13,3.13,0,1,1,0-6.26H36.27a3.13,3.13,0,0,1,0,6.26Z" transform="translate(-0.25 -0.45)"/><path class="cls-1" d="M46.18,6.71H3.38a3.13,3.13,0,0,1,0-6.26h42.8a3.13,3.13,0,0,1,0,6.26Z" transform="translate(-0.25 -0.45)"/><path class="cls-1" d="M21.13,34.9H3.38a3.13,3.13,0,1,1,0-6.26H21.13a3.13,3.13,0,1,1,0,6.26Z" transform="translate(-0.25 -0.45)"/><path class="cls-1" d="M21.13,49H3.38a3.13,3.13,0,0,1,0-6.26H21.13a3.13,3.13,0,0,1,0,6.26Z" transform="translate(-0.25 -0.45)"/><path class="cls-1" d="M29.48,63.09H3.38a3.13,3.13,0,0,1,0-6.26h26.1a3.13,3.13,0,0,1,0,6.26Z" transform="translate(-0.25 -0.45)"/><path class="cls-2" d="M50.18,28.07V29.7a9.41,9.41,0,0,1,2.77.66,5.48,5.48,0,0,1,2,1.51,6.3,6.3,0,0,1,1,1.58,3.69,3.69,0,0,1,.37,1.49,1.78,1.78,0,0,1-.55,1.3,1.82,1.82,0,0,1-1.33.55,1.88,1.88,0,0,1-1.91-1.6,3.42,3.42,0,0,0-2.4-2.5V39c1.25.34,2.24.65,3,.93a6.28,6.28,0,0,1,2,1.22,5.66,5.66,0,0,1,1.44,2,6.2,6.2,0,0,1,.5,2.52,6.75,6.75,0,0,1-.8,3.22,6.41,6.41,0,0,1-2.37,2.45,8.44,8.44,0,0,1-3.73,1.13v3.75a3.54,3.54,0,0,1-.17,1.3.73.73,0,0,1-.76.4.85.85,0,0,1-.76-.33,1.94,1.94,0,0,1-.21-1V52.45a9.65,9.65,0,0,1-3.08-.83A7.31,7.31,0,0,1,43,50a6.58,6.58,0,0,1-1.3-2,5.19,5.19,0,0,1-.42-2,1.81,1.81,0,0,1,.57-1.3,1.86,1.86,0,0,1,1.41-.58,2,2,0,0,1,1.14.31,1.64,1.64,0,0,1,.65.89,19,19,0,0,0,.71,1.89,3.69,3.69,0,0,0,.91,1.2,4,4,0,0,0,1.62.83v-7a19,19,0,0,1-3.38-1.24,5.7,5.7,0,0,1-2.2-2,5.75,5.75,0,0,1-.84-3.25,5.76,5.76,0,0,1,1.65-4.25,7.43,7.43,0,0,1,4.77-1.93V28.1c0-.84.31-1.27.95-1.27S50.18,27.25,50.18,28.07ZM48.27,38.41V32.64a5.28,5.28,0,0,0-2,1,2.79,2.79,0,0,0,0,3.67A6.22,6.22,0,0,0,48.27,38.41Zm1.91,4.47v6.6a4.17,4.17,0,0,0,2.36-1.22,3.1,3.1,0,0,0,.83-2.14,2.57,2.57,0,0,0-.81-2A6.54,6.54,0,0,0,50.18,42.88Z" transform="translate(-0.25 -0.45)"/></svg>