<?xml version="1.0" encoding="utf-8"?>
<!-- Generator: Adobe Illustrator 21.1.0, SVG Export Plug-In . SVG Version: 6.00 Build 0)  -->
<svg version="1.1" id="Layer_1" xmlns="http://www.w3.org/2000/svg" xmlns:xlink="http://www.w3.org/1999/xlink" x="0px" y="0px"
	 viewBox="0 0 126.3 118" style="enable-background:new 0 0 126.3 118;" xml:space="preserve">
<style type="text/css">
	.st0{fill:#494949;}
	.st1{fill:#C60C30;}
</style>
<path class="st0" d="M34.9,110.3c-9.3,0-16.8-7.5-16.8-16.8s7.5-16.8,16.8-16.8s16.8,7.5,16.8,16.8l0,0
	C51.8,102.8,44.2,110.3,34.9,110.3L34.9,110.3z M34.9,87c-3.6,0-6.5,2.9-6.5,6.5c0,3.6,2.9,6.5,6.5,6.5c3.6,0,6.5-2.9,6.5-6.5
	C41.4,90,38.5,87,34.9,87C34.9,87,34.9,87,34.9,87L34.9,87z"/>
<path class="st0" d="M92.7,110.3c-9.3-0.1-16.8-7.7-16.7-17s7.7-16.8,17-16.7c9.2,0.1,16.7,7.6,16.7,16.8c0,9.3-7.5,16.8-16.8,16.8
	l0,0H92.7z M92.7,87c-3.6,0-6.5,2.9-6.5,6.5c0,3.6,2.9,6.5,6.5,6.5c3.6,0,6.5-2.9,6.5-6.5C99.3,90,96.3,87,92.7,87L92.7,87L92.7,87z
	"/>
<path class="st0" d="M81.1,98.6H48.3c-2.9,0-5.2-2.3-5.2-5.2s2.3-5.2,5.2-5.2h32.8c2.9,0,5.2,2.3,5.2,5.2S84,98.6,81.1,98.6
	C81.1,98.6,81.1,98.6,81.1,98.6z"/>
<path class="st0" d="M36.8,86.6c-2.8-0.1-5-2.5-4.9-5.3c0-0.5,0.1-0.9,0.2-1.3l2.9-9.3L17.8,20l-13-3.7C2,15.4,0.4,12.5,1.2,9.8
	s3.7-4.4,6.5-3.6l15.5,4.5c1.7,0.4,3,1.7,3.6,3.3l18.3,55c0.3,1,0.3,2.1,0,3.2L41.7,83C41.1,85.2,39.1,86.6,36.8,86.6L36.8,86.6
	L36.8,86.6z"/>
<path class="st0" d="M105.8,76H39.9c-2.2-0.1-4.1-1.7-4.7-3.9L22.6,31.6c-0.9-2.7,0.6-5.6,3.3-6.4c0.5-0.2,1-0.2,1.6-0.2h92.7
	c2.8,0,5.2,2.2,5.2,5.1c0,0.5-0.1,1-0.2,1.5l-10.5,36.7C114.2,72.7,110.3,76.1,105.8,76L105.8,76z M43.7,65.7h60.7l8.6-30.2H34.5
	l9.4,30l0,0L43.7,65.7z"/>
<path class="st1" d="M104.2,46H44c-1.4,0-2.6-1.1-2.6-2.6c0-1.4,1.1-2.6,2.6-2.6h60.2c1.4,0,2.6,1.1,2.6,2.6
	C106.7,44.9,105.6,46,104.2,46C104.2,46,104.2,46,104.2,46z"/>
<path class="st1" d="M100.2,59.2H48.3c-1.4,0-2.6-1.1-2.6-2.6c0-1.4,1.1-2.6,2.6-2.6h52c1.4,0,2.6,1.1,2.6,2.6
	C102.8,58,101.7,59.2,100.2,59.2L100.2,59.2L100.2,59.2z"/>
</svg>
