<?xml version="1.0" encoding="utf-8"?>
<!-- Generator: Adobe Illustrator 24.2.1, SVG Export Plug-In . SVG Version: 6.00 Build 0)  -->
<svg version="1.1" id="Layer_1" focusable="false" xmlns="http://www.w3.org/2000/svg" xmlns:xlink="http://www.w3.org/1999/xlink"
	 x="0px" y="0px" viewBox="0 0 556 497.2" style="enable-background:new 0 0 556 497.2;" xml:space="preserve">
<style type="text/css">
	.st0{fill:#C60C30;}
	.st1{fill:#494949;}
</style>
<path class="st0" d="M278,0c-69.6,0-126,56.4-126,126c0,56.3,82.4,158.8,113.9,196c6.4,7.5,17.8,7.5,24.2,0
	C321.6,284.8,404,182.3,404,126C404,56.4,347.6,0,278,0z M278,168c-23.2,0-42-18.8-42-42s18.8-42,42-42s42,18.8,42,42
	S301.2,168,278,168z"/>
<g id="Layer_2">
	<path class="st1" d="M20.1,196.9C8,201.8,0,213.6,0,226.7V477c0,11.3,11.4,19.1,21.9,14.9L160,429V195.9
		c-8.8-16-16.1-31.5-21.3-46.4L20.1,196.9z"/>
	<path class="st1" d="M278,340.7c-14.1,0-27.4-6.2-36.5-17c-19.7-23.2-40.6-49.6-59.5-76.7v182l192,64V247
		c-18.9,27.1-39.8,53.5-59.5,76.7C305.4,334.5,292.1,340.7,278,340.7z"/>
	<path class="st1" d="M534.1,142.2L396,205v288l139.9-56c12.2-4.9,20.1-16.6,20.1-29.7V157C556,145.7,544.6,138,534.1,142.2
		L534.1,142.2z"/>
</g>
</svg>
