<?xml version="1.0" encoding="utf-8"?>
<!-- Generator: Adobe Illustrator 21.1.0, SVG Export Plug-In . SVG Version: 6.00 Build 0)  -->
<svg version="1.1" id="Layer_1" xmlns="http://www.w3.org/2000/svg" xmlns:xlink="http://www.w3.org/1999/xlink" x="0px" y="0px"
	 viewBox="0 0 157.3 155.8" style="enable-background:new 0 0 157.3 155.8;" xml:space="preserve">
<style type="text/css">
	.st0{fill:#494949;}
	.st1{fill:#C60C30;}
</style>
<path class="st0" d="M63,90l-38.7,10.1c-0.8,0.2-1.3,1.1-1.1,1.9c0,0,0,0,0,0l0.4,1.5c0.2,0.8,1.1,1.3,1.9,1.1c0,0,0,0,0,0
	l38.7-10.1c0.8-0.2,1.3-1,1.1-1.9c0,0,0,0,0,0l-0.4-1.5C64.7,90.3,63.8,89.8,63,90z"/>
<path class="st0" d="M61.1,119.1c-0.2-0.8-1.1-1.3-1.9-1.1c0,0,0,0,0,0l-28.3,7.4c-0.8,0.2-1.3,1-1.1,1.9c0,0,0,0,0,0l0.4,1.5
	c0.2,0.8,1.1,1.3,1.9,1.1c0,0,0,0,0,0l28.3-7.4c0.8-0.2,1.3-1,1.1-1.9c0,0,0,0,0,0L61.1,119.1z"/>
<path class="st0" d="M60.9,106.4l-0.4-1.5c-0.2-0.8-1.1-1.3-1.9-1.1c0,0,0,0,0,0L27.4,112c-0.8,0.2-1.3,1.1-1.1,1.9c0,0,0,0,0,0
	l0.4,1.5c0.2,0.8,1.1,1.3,1.9,1.1c0,0,0,0,0,0l31.2-8.1C60.7,108.1,61.2,107.3,60.9,106.4z"/>
<path class="st0" d="M61.8,79.2l-0.4-1.5c-0.2-0.8-1.1-1.3-1.9-1.1c0,0,0,0,0,0L20.9,86.7c-0.8,0.2-1.3,1.1-1.1,1.9c0,0,0,0,0,0
	l0.4,1.5c0.2,0.8,1,1.3,1.9,1.1c0,0,0,0,0,0l38.7-10.1C61.5,80.9,62,80,61.8,79.2z"/>
<path class="st0" d="M149.9,31.7l-16.4-20.6c-1.5-1.9-3.9-3.1-6.4-3.1H42.3c-2.5,0-4.8,1.1-6.4,3.1L19.5,31.7
	c-1.7,2.1-3.1,6.2-3.1,9.2v15.1c1.3-2,3.2-3.6,5.5-4.4c0.4-4.9,3.8-9,8.5-10.2c1-0.3,2-0.4,3-0.4c3.8,0,7.4,1.9,9.5,5.1
	c0.6-0.1,1.2-0.2,1.9-0.2c1.9,0,3.7,0.5,5.3,1.4l9.1-2.4c7.4-1.9,14.9,2.5,16.8,9.9c0,0,0,0,0,0l17.8,68.4
	c1.9,7.4-2.5,14.9-9.9,16.8c0,0,0,0,0,0l-7.9,2.1h66.7c5.6,0,10.2-4.6,10.2-10.2V40.6C153,37.8,151.6,33.8,149.9,31.7z M24.9,31.5
	l5.4-6.8h37.1l3.7-6H35.1l4-5c0.8-1,1.9-1.5,3.2-1.5h84.8c1.2,0,2.4,0.6,3.2,1.5l4,5H97.7l2,6h39.3l5.4,6.8L24.9,31.5L24.9,31.5z"/>
<path class="st1" d="M26.6,56.6l-2.3,0.6c-2.4,0.6-3.9,3.1-3.3,5.6c0,0,0,0,0,0l0,0.1c0.6,2.4,3.1,3.9,5.6,3.3L46,61.1
	c2.4-0.6,3.9-3.1,3.3-5.6c0,0,0,0,0,0l0-0.1c-0.6-2.4-3.1-3.9-5.6-3.3c0,0,0,0,0,0l-2.3,0.6c-1.2,0.3-2.5-0.4-2.8-1.6c0,0,0,0,0,0
	l0-0.1c-0.7-2.8-3.6-4.5-6.5-3.8c0,0,0,0,0,0l-0.1,0c-2.8,0.7-4.5,3.6-3.8,6.5c0,0,0,0,0,0l0,0.1C28.5,55,27.8,56.3,26.6,56.6
	C26.6,56.6,26.6,56.6,26.6,56.6z M32.8,50.2c1.2-0.3,2.5,0.4,2.8,1.6c0.3,1.2-0.4,2.5-1.6,2.8c-1.2,0.3-2.5-0.4-2.8-1.6c0,0,0,0,0,0
	C30.9,51.8,31.6,50.6,32.8,50.2L32.8,50.2z"/>
<path class="st1" d="M88,124.8L70.2,56.4c-1.1-4.1-5.3-6.6-9.4-5.5c0,0,0,0,0,0l-9.1,2.4c1.9,3.8,0.3,8.4-3.6,10.3
	c-0.4,0.2-0.9,0.4-1.4,0.5l-19.1,5c-3.9,1-8.1-1-9.4-4.8c-0.2-0.7-0.4-1.4-0.4-2.2l-9.1,2.4c-4.1,1.1-6.6,5.3-5.5,9.4c0,0,0,0,0,0
	L21,142.2c1.1,4.1,5.3,6.6,9.4,5.5c0,0,0,0,0,0l52.1-13.6C86.6,133.1,89,128.9,88,124.8z M28.5,140.3L13,80.8l52.1-13.5l15.5,59.5
	L28.5,140.3z"/>
</svg>
