<?xml version="1.0" encoding="utf-8"?>
<!-- Generator: Adobe Illustrator 24.2.1, SVG Export Plug-In . SVG Version: 6.00 Build 0)  -->
<svg version="1.1" id="Layer_1" xmlns="http://www.w3.org/2000/svg" xmlns:xlink="http://www.w3.org/1999/xlink" x="0px" y="0px"
	 viewBox="0 0 62.3 63.1" style="enable-background:new 0 0 62.3 63.1;" xml:space="preserve">
<style type="text/css">
	.st0{fill:#FFFFFF;}
	.st1{fill:#C60C30;stroke:#C60C30;stroke-width:2;stroke-miterlimit:10;}
	.st2{fill:#494949;}
	.st3{fill:#C60C30;}
</style>
<g>
	<rect x="4.6" y="12.6" class="st0" width="46.8" height="46.8"/>
	<path class="st1" d="M49,15v42H7V15H49 M53.8,10.2H2.2v51.6h50.4c0.7,0,1.2-0.5,1.2-1.2V10.2L53.8,10.2z"/>
</g>
<g>
	<path class="st2" d="M52.3,5.7l3.5,3.9c0.6,0.6,0.6,1.6,0,2.2L26.1,45.5l-9.6,6.6c-1.7,0.2-3.2-1.5-3-3.4L20,38.2L50.3,5.7
		C50.9,5.1,51.7,5.1,52.3,5.7L52.3,5.7z"/>
	<path class="st3" d="M60.2,4.1l-2.5-2.9c-0.8-0.9-2.1-0.9-2.9,0l-1.8,2.1c-0.2,0.2-0.2,0.6,0,0.8l4.7,5.3c0.2,0.2,0.6,0.2,0.7,0
		l1.8-2.1C61,6.4,61,5,60.2,4.1z"/>
</g>
</svg>
